<?xml version="1.0" encoding="UTF-8" standalone="no"?>
<!DOCTYPE svg PUBLIC "-//W3C//DTD SVG 1.1//EN" "http://www.w3.org/Graphics/SVG/1.1/DTD/svg11.dtd">
<svg width="100%" height="100%" viewBox="0 0 800 800" version="1.1" xmlns="http://www.w3.org/2000/svg" xmlns:xlink="http://www.w3.org/1999/xlink" xml:space="preserve" xmlns:serif="http://www.serif.com/" style="fill-rule:evenodd;clip-rule:evenodd;stroke-linejoin:round;stroke-miterlimit:2;">
    <g transform="matrix(1.25,0,0,1.25,0,80)">
        <path d="M104,96L56,96C42.7,96 32,106.7 32,120L32,224L8,224C3.6,224 0,227.6 0,232L0,280C0,284.4 3.6,288 8,288L32,288L32,392C32,405.3 42.7,416 56,416L104,416C117.3,416 128,405.3 128,392L128,120C128,106.7 117.3,96 104,96ZM632,224L608,224L608,120C608,106.7 597.3,96 584,96L536,96C522.7,96 512,106.7 512,120L512,392C512,405.3 522.7,416 536,416L584,416C597.3,416 608,405.3 608,392L608,288L632,288C636.4,288 640,284.4 640,280L640,232C640,227.6 636.4,224 632,224ZM456,32L408,32C394.7,32 384,42.7 384,56L384,224L256,224L256,56C256,42.7 245.3,32 232,32L184,32C170.7,32 160,42.7 160,56L160,456C160,469.3 170.7,480 184,480L232,480C245.3,480 256,469.3 256,456L256,288L384,288L384,456C384,469.3 394.7,480 408,480L456,480C469.3,480 480,469.3 480,456L480,56C480,42.7 469.3,32 456,32Z" style="fill:white;fill-rule:nonzero;"/>
    </g>
</svg>
